<svg xmlns="http://www.w3.org/2000/svg" viewBox="0 0 911 273" fill="none"><path d="M124.28 256.35L124.28 171.63Q116.78 184.98 103.48 192.89Q90.18 200.80 73.77 200.80Q58.30 200.80 45 192.95Q31.70 185.10 23.85 171.63Q16 158.15 16 142.33Q16 126.39 23.85 112.91Q31.70 99.44 45 91.59Q58.30 83.73 73.77 83.73Q90.18 83.73 103.48 91.64Q116.78 99.55 124.28 112.91L124.28 85.84L133.54 85.84L133.54 256.35L124.28 256.35M74.71 191.78Q88.19 191.78 99.55 185.10Q110.92 178.42 117.60 167.11Q124.28 155.80 124.28 142.33Q124.28 128.85 117.60 117.48Q110.92 106.12 99.55 99.50Q88.19 92.88 74.71 92.88Q61.35 92.88 49.98 99.50Q38.62 106.12 31.94 117.48Q25.26 128.85 25.26 142.33Q25.26 155.80 31.94 167.11Q38.62 178.42 49.98 185.10Q61.35 191.78 74.71 191.78M224.36 200.80Q208.42 200.80 194.95 192.95Q181.47 185.10 173.56 171.68Q165.65 158.27 165.65 142.33Q165.65 126.39 173.56 112.91Q181.47 99.44 194.95 91.59Q208.42 83.73 224.36 83.73Q240.30 83.73 253.77 91.59Q267.25 99.44 275.16 112.91Q283.07 126.39 283.07 142.33Q283.07 158.27 275.16 171.68Q267.25 185.10 253.77 192.95Q240.30 200.80 224.36 200.80M224.36 191.55Q237.84 191.55 249.14 184.93Q260.45 178.30 267.07 167.05Q273.70 155.80 273.70 142.33Q273.70 128.85 267.07 117.54Q260.45 106.23 249.14 99.61Q237.84 92.99 224.36 92.99Q210.88 92.99 199.57 99.61Q188.27 106.23 181.64 117.54Q175.02 128.85 175.02 142.33Q175.02 155.80 181.64 167.05Q188.27 178.30 199.57 184.93Q210.88 191.55 224.36 191.55M375.06 200.80Q358.66 200.80 345.36 192.89Q332.05 184.98 324.55 171.51L324.55 198.70L315.30 198.70L315.30 18.70L324.55 18.70L324.55 113.03Q332.05 99.55 345.36 91.64Q358.66 83.73 375.06 83.73Q390.53 83.73 403.83 91.59Q417.13 99.44 424.98 112.91Q432.84 126.39 432.84 142.33Q432.84 158.15 424.98 171.63Q417.13 185.10 403.83 192.95Q390.53 200.80 375.06 200.80M374.13 191.78Q387.48 191.78 398.85 185.10Q410.22 178.42 416.90 167.11Q423.58 155.80 423.58 142.33Q423.58 128.85 416.90 117.48Q410.22 106.12 398.85 99.50Q387.48 92.88 374.13 92.88Q360.65 92.88 349.28 99.50Q337.91 106.12 331.23 117.48Q324.55 128.85 324.55 142.33Q324.55 155.80 331.23 167.11Q337.91 178.42 349.28 185.10Q360.65 191.78 374.13 191.78M503.50 200.80Q491.66 200.80 482 195.30Q472.33 189.79 466.88 180.24Q461.43 170.69 461.43 158.85L461.43 85.84L470.92 85.84L470.92 158.27Q470.92 167.64 475.26 175.32Q479.59 182.99 487.04 187.39Q494.48 191.78 503.50 191.78Q512.52 191.78 519.96 187.39Q527.41 182.99 531.74 175.32Q536.08 167.64 536.08 158.27L536.08 85.84L545.57 85.84L545.57 158.85Q545.57 170.69 540.06 180.24Q534.55 189.79 524.95 195.30Q515.34 200.80 503.50 200.80M572.99 198.70L572.99 193.07L645.06 94.87L574.75 94.87L574.75 85.84L659.48 85.84L659.48 91.47L586.47 189.79L665.45 189.79L665.45 198.70L572.99 198.70M692.29 198.70L692.29 85.84L701.43 85.84L701.43 198.70L692.29 198.70M696.86 64.05Q693.23 64.05 690.65 61.41Q688.07 58.77 688.07 55.02Q688.07 51.39 690.65 48.87Q693.23 46.35 696.86 46.35Q700.49 46.35 703.13 48.87Q705.77 51.39 705.77 55.02Q705.77 58.66 703.13 61.35Q700.49 64.05 696.86 64.05M748.66 198.70L748.66 94.63L729.67 94.63L729.67 85.84L748.66 85.84L748.66 43.89Q748.66 35.80 752.17 29.48Q755.69 23.15 761.96 19.57Q768.23 16 776.20 16Q779.83 16 783.64 17Q787.45 17.99 789.55 19.63L789.55 29.24Q787.09 27.48 783.46 26.20Q779.83 24.91 776.90 24.91Q771.63 24.91 767.35 27.54Q763.07 30.18 760.61 34.75Q758.15 39.32 758.15 44.95L758.15 85.84L790.02 85.84L790.02 94.63L758.15 94.63L758.15 198.70L748.66 198.70M807.72 256.35L807.72 245.10Q814.98 244.52 817.56 242.64Q819.67 241.23 821.61 238.83Q823.54 236.43 824.36 234.09L838.54 198.46L793.30 85.84L803.97 85.84L843.93 187.21L883.42 85.84L894.09 85.84L832.80 238.77Q829.98 245.80 822.72 251.20Q819.09 253.77 815.80 254.95Q812.52 256.12 807.72 256.35" fill="#FFFFFF"/></svg>