<svg xmlns="http://www.w3.org/2000/svg" viewBox="0 0 926 273" fill="none"><path d="M117.72 256.35L117.72 179.13Q110.10 189.32 98.62 195.06Q87.13 200.80 72.84 200.80Q57.72 200.80 44.65 192.95Q31.59 185.10 23.79 171.63Q16 158.15 16 142.33Q16 126.39 23.79 112.97Q31.59 99.55 44.65 91.64Q57.72 83.73 72.84 83.73Q87.13 83.73 98.62 89.48Q110.10 95.22 117.72 105.53L117.72 85.84L133.66 85.84L133.66 256.35L117.72 256.35M74.95 185.22Q86.66 185.22 96.45 179.48Q106.23 173.73 111.98 163.89Q117.72 154.05 117.72 142.33Q117.72 130.61 111.98 120.71Q106.23 110.80 96.45 105.06Q86.66 99.32 74.95 99.32Q63.23 99.32 53.38 105.06Q43.54 110.80 37.74 120.71Q31.94 130.61 31.94 142.33Q31.94 154.05 37.74 163.89Q43.54 173.73 53.38 179.48Q63.23 185.22 74.95 185.22M222.72 200.80Q206.66 200.80 193.13 192.95Q179.59 185.10 171.68 171.68Q163.77 158.27 163.77 142.33Q163.77 126.39 171.68 112.91Q179.59 99.44 193.13 91.59Q206.66 83.73 222.72 83.73Q238.77 83.73 252.25 91.59Q265.73 99.44 273.64 112.91Q281.55 126.39 281.55 142.33Q281.55 158.27 273.64 171.68Q265.73 185.10 252.25 192.95Q238.77 200.80 222.72 200.80M222.72 185.22Q234.32 185.22 244.16 179.48Q254.01 173.73 259.75 163.89Q265.49 154.05 265.49 142.33Q265.49 130.61 259.75 120.77Q254.01 110.92 244.16 105.18Q234.32 99.44 222.72 99.44Q211 99.44 201.16 105.18Q191.31 110.92 185.57 120.77Q179.83 130.61 179.83 142.33Q179.83 154.05 185.57 163.89Q191.31 173.73 201.16 179.48Q211 185.22 222.72 185.22M372.72 200.80Q358.54 200.80 347 195.06Q335.45 189.32 327.84 179.13L327.84 198.70L311.90 198.70L311.90 18.70L327.84 18.70L327.84 105.41Q335.45 95.22 347 89.48Q358.54 83.73 372.72 83.73Q387.84 83.73 400.90 91.64Q413.97 99.55 421.76 112.97Q429.55 126.39 429.55 142.33Q429.55 158.15 421.76 171.63Q413.97 185.10 400.90 192.95Q387.84 200.80 372.72 200.80M370.61 185.22Q382.33 185.22 392.17 179.48Q402.02 173.73 407.82 163.89Q413.62 154.05 413.62 142.33Q413.62 130.61 407.82 120.71Q402.02 110.80 392.17 105.06Q382.33 99.32 370.61 99.32Q358.89 99.32 349.11 105.06Q339.32 110.80 333.58 120.71Q327.84 130.61 327.84 142.33Q327.84 154.05 333.58 163.89Q339.32 173.73 349.11 179.48Q358.89 185.22 370.61 185.22M499.40 200.80Q486.74 200.80 477.07 195.47Q467.41 190.14 462.02 180.53Q456.63 170.92 456.63 158.27L456.63 85.84L472.68 85.84L472.68 156.63Q472.68 165.06 476.14 171.57Q479.59 178.07 485.69 181.64Q491.78 185.22 499.40 185.22Q507.13 185.22 513.17 181.64Q519.20 178.07 522.66 171.57Q526.12 165.06 526.12 156.63L526.12 85.84L542.17 85.84L542.17 158.27Q542.17 170.92 536.78 180.53Q531.39 190.14 521.72 195.47Q512.05 200.80 499.40 200.80M567.60 198.70L567.60 188.62L634.28 100.61L568.77 100.61L568.77 85.84L656.43 85.84L656.43 95.92L589.75 183.93L662.05 183.93L662.05 198.70L567.60 198.70M689.36 198.70L689.36 85.84L705.18 85.84L705.18 198.70L689.36 198.70M697.33 64.63Q692.52 64.63 689.13 61.23Q685.73 57.84 685.73 53.15Q685.73 48.23 689.13 44.95Q692.52 41.66 697.33 41.66Q702.02 41.66 705.47 45Q708.93 48.34 708.93 53.15Q708.93 57.84 705.47 61.23Q702.02 64.63 697.33 64.63M751.47 198.70L751.47 100.61L732.48 100.61L732.48 85.84L751.47 85.84L751.47 48.46Q751.47 38.73 755.39 31.41Q759.32 24.09 766.47 20.04Q773.62 16 782.88 16Q787.45 16 791.43 16.94Q795.41 17.88 797.52 19.52L797.52 35.45Q795.06 33.46 791.55 32.29Q788.03 31.12 784.75 31.12Q777.13 31.12 772.33 36.51Q767.52 41.90 767.52 50.45L767.52 85.84L797.99 85.84L797.99 100.61L767.52 100.61L767.52 198.70L751.47 198.70M816.63 256.70L816.63 240.77Q824.71 240.77 827.99 238.66Q829.40 237.60 831.68 234.38Q833.97 231.16 835.26 227.88L847.09 198.46L801.51 85.84L819.32 85.84L856.23 177.95L891.63 85.84L909.67 85.84L849.20 235.96Q844.52 245.57 837.25 250.96Q832.91 254.01 828.29 255.36Q823.66 256.70 816.63 256.70" fill="#FFFFFF"/></svg>