<svg xmlns="http://www.w3.org/2000/svg" width="100" height="100" viewBox="0 0 100 100">
  <defs>
    <linearGradient id="g" x1="0" y1="0" x2="0" y2="1">
      <stop offset="0" stop-color="#4FB0FF"/>
      <stop offset="1" stop-color="#2E93F0"/>
    </linearGradient>
  </defs>
  <rect width="100" height="100" rx="24" fill="url(#g)"/>
  <path transform="translate(23.08 -11.08) scale(0.3592)" fill="#ffffff" d="M114.20 256.35L114.20 182.64Q106.70 191.43 96.10 196.12Q85.49 200.80 72.48 200.80Q57.72 200.80 44.59 192.84Q31.47 184.87 23.73 171.39Q16 157.91 16 142.33Q16 126.39 23.85 112.91Q31.59 99.44 44.65 91.59Q57.72 83.73 72.48 83.73Q85.49 83.73 96.10 88.42Q106.70 93.11 114.20 101.90L114.20 85.84L133.89 85.84L133.89 256.35L114.20 256.35M75.06 181.70Q85.96 181.70 94.87 176.43Q103.89 171.16 109.05 162.13Q114.20 153.11 114.20 142.33Q114.20 131.55 109.05 122.52Q103.77 113.38 94.81 108.17Q85.84 102.95 75.06 102.95Q64.28 102.95 55.26 108.23Q46.12 113.50 40.90 122.52Q35.69 131.55 35.69 142.33Q35.69 153.11 40.96 162.13Q46.23 171.27 55.26 176.49Q64.28 181.70 75.06 181.70"/>
</svg>
