<svg xmlns="http://www.w3.org/2000/svg" viewBox="0 0 934 273" fill="none"><path d="M114.20 256.35L114.20 182.64Q106.70 191.43 96.10 196.12Q85.49 200.80 72.48 200.80Q57.72 200.80 44.59 192.84Q31.47 184.87 23.73 171.39Q16 157.91 16 142.33Q16 126.39 23.85 112.91Q31.59 99.44 44.65 91.59Q57.72 83.73 72.48 83.73Q85.49 83.73 96.10 88.42Q106.70 93.11 114.20 101.90L114.20 85.84L133.89 85.84L133.89 256.35L114.20 256.35M75.06 181.70Q85.96 181.70 94.87 176.43Q103.89 171.16 109.05 162.13Q114.20 153.11 114.20 142.33Q114.20 131.55 109.05 122.52Q103.77 113.38 94.81 108.17Q85.84 102.95 75.06 102.95Q64.28 102.95 55.26 108.23Q46.12 113.50 40.90 122.52Q35.69 131.55 35.69 142.33Q35.69 153.11 40.96 162.13Q46.23 171.27 55.26 176.49Q64.28 181.70 75.06 181.70M222.02 200.80Q205.84 200.80 192.37 192.95Q178.77 185.10 170.86 171.63Q162.95 158.15 162.95 142.33Q162.95 126.51 170.92 112.91Q178.89 99.32 192.43 91.53Q205.96 83.73 222.02 83.73Q238.07 83.73 251.55 91.59Q265.02 99.44 272.88 112.97Q280.73 126.51 280.73 142.33Q280.73 158.38 272.88 171.63Q265.02 185.22 251.49 193.01Q237.95 200.80 222.02 200.80M222.02 181.70Q232.68 181.70 241.59 176.43Q250.49 171.16 255.77 162.02Q261.04 152.88 261.04 142.33Q261.04 131.55 255.88 122.52Q250.61 113.38 241.59 108.17Q232.56 102.95 222.02 102.95Q211.12 102.95 202.09 108.23Q192.95 113.50 187.80 122.52Q182.64 131.55 182.64 142.33Q182.64 153.11 187.91 162.13Q193.19 171.27 202.21 176.49Q211.23 181.70 222.02 181.70M371.43 200.80Q358.42 200.80 347.82 196.12Q337.21 191.43 329.71 182.64L329.71 198.70L310.02 198.70L310.02 18.70L329.71 18.70L329.71 101.90Q337.21 93.11 347.82 88.42Q358.42 83.73 371.43 83.73Q386.43 83.73 399.32 91.59Q412.45 99.55 420.12 113.09Q427.80 126.63 427.80 142.33Q427.80 158.03 420.06 171.63Q412.33 185.10 399.26 192.95Q386.20 200.80 371.43 200.80M368.73 181.70Q379.63 181.70 388.54 176.43Q397.68 171.16 402.89 162.13Q408.11 153.11 408.11 142.33Q408.11 131.43 402.84 122.52Q397.56 113.38 388.54 108.17Q379.52 102.95 368.73 102.95Q358.07 102.95 349.05 108.23Q340.02 113.50 334.87 122.58Q329.71 131.66 329.71 142.33Q329.71 153.11 334.98 162.13Q340.14 171.27 349.16 176.49Q358.19 181.70 368.73 181.70M500.92 200.80Q488.03 200.80 478.13 195.47Q468.23 190.14 462.72 180.53Q457.21 170.92 457.21 158.27L457.21 85.84L476.66 85.84L476.66 156.63Q476.66 165.06 480.47 171.16Q484.28 177.25 489.67 179.95Q495.06 182.64 500.92 182.64Q506.78 182.64 512.52 179.95Q518.27 177.25 521.78 171.86Q525.30 166.47 525.30 156.63L525.30 85.84L544.63 85.84L544.63 158.27Q544.63 170.92 539.13 180.53Q533.62 190.14 523.71 195.47Q513.81 200.80 500.92 200.80M564.55 198.70L564.44 185.92L626.31 103.89L567.13 103.89L567.13 85.84L653.73 85.84L653.73 98.62L591.86 180.65L655.14 180.65L655.14 198.70L564.55 198.70M687.72 198.70L687.72 85.84L707.17 85.84L707.17 198.70L687.72 198.70M697.56 64.98Q692.17 64.98 688.25 61.18Q684.32 57.37 684.32 52.09Q684.32 46.59 688.25 42.84Q692.17 39.09 697.56 39.09Q702.95 39.09 706.76 42.84Q710.57 46.59 710.57 52.09Q710.57 57.37 706.70 61.18Q702.84 64.98 697.56 64.98M752.99 198.70L752.99 103.89L734.01 103.89L734.01 85.84L752.99 85.84L752.99 51.04Q752.99 40.38 757.15 32.46Q761.31 24.55 768.93 20.28Q776.55 16 786.63 16Q791.43 16 795.59 16.94Q799.75 17.88 801.98 19.40L801.98 38.85Q799.40 36.86 795.88 35.69Q792.37 34.52 788.97 34.52Q781.59 34.52 777.13 39.73Q772.68 44.95 772.68 53.50L772.68 85.84L802.45 85.84L802.45 103.89L772.68 103.89L772.68 198.70L752.99 198.70M822.13 256.35L822.13 237.13Q830.22 237.13 833.50 235.02Q836.31 233.15 839.24 226L850.61 198.70L804.79 85.84L826.70 85.84L861.86 174.09L895.02 85.84L917.17 85.84L856.82 235.61Q852.13 245.22 844.87 250.61Q836.66 256.35 822.13 256.35" fill="#FFFFFF"/></svg>